<svg xmlns="http://www.w3.org/2000/svg" xmlns:xlink="http://www.w3.org/1999/xlink" width="500" zoomAndPan="magnify" viewBox="0 0 375 374.999991" height="500" preserveAspectRatio="xMidYMid meet" version="1.0"><defs><g/></defs><g fill="rgb(1.959229%, 3.919983%, 18.818665%)" fill-opacity="1"><g transform="translate(176.02269, 182.680402)"><g><path d="M 12.046875 -21.625 C 14.003906 -21.625 15.703125 -21.296875 17.140625 -20.640625 C 18.585938 -19.992188 19.703125 -19.066406 20.484375 -17.859375 C 21.265625 -16.660156 21.65625 -15.25 21.65625 -13.625 C 21.65625 -12 21.265625 -10.585938 20.484375 -9.390625 C 19.703125 -8.191406 18.585938 -7.269531 17.140625 -6.625 C 15.703125 -5.976562 14.003906 -5.65625 12.046875 -5.65625 L 8.28125 -5.65625 L 8.28125 0 L 2.15625 0 L 2.15625 -21.625 Z M 11.671875 -10.46875 C 12.929688 -10.46875 13.878906 -10.738281 14.515625 -11.28125 C 15.148438 -11.832031 15.46875 -12.613281 15.46875 -13.625 C 15.46875 -14.632812 15.148438 -15.414062 14.515625 -15.96875 C 13.878906 -16.519531 12.929688 -16.796875 11.671875 -16.796875 L 8.28125 -16.796875 L 8.28125 -10.46875 Z M 11.671875 -10.46875 "/></g></g></g><g fill="rgb(1.959229%, 3.919983%, 18.818665%)" fill-opacity="1"><g transform="translate(198.792423, 182.680402)"><g><path d="M 16.65625 -4.203125 L 7.5 -4.203125 L 5.8125 0 L -0.4375 0 L 9.109375 -21.625 L 15.140625 -21.625 L 24.71875 0 L 18.34375 0 Z M 14.859375 -8.71875 L 12.078125 -15.625 L 9.296875 -8.71875 Z M 14.859375 -8.71875 "/></g></g></g><g fill="rgb(1.959229%, 3.919983%, 18.818665%)" fill-opacity="1"><g transform="translate(223.076027, 182.680402)"><g><path d="M 22.734375 -21.625 L 22.734375 0 L 17.703125 0 L 8.15625 -11.515625 L 8.15625 0 L 2.15625 0 L 2.15625 -21.625 L 7.203125 -21.625 L 16.75 -10.09375 L 16.75 -21.625 Z M 22.734375 -21.625 "/></g></g></g><g fill="rgb(1.959229%, 3.919983%, 18.818665%)" fill-opacity="1"><g transform="translate(247.977538, 182.680402)"><g><path d="M 2.15625 -21.625 L 12.390625 -21.625 C 14.753906 -21.625 16.851562 -21.179688 18.6875 -20.296875 C 20.519531 -19.410156 21.941406 -18.15625 22.953125 -16.53125 C 23.960938 -14.90625 24.46875 -13 24.46875 -10.8125 C 24.46875 -8.625 23.960938 -6.71875 22.953125 -5.09375 C 21.941406 -3.46875 20.519531 -2.210938 18.6875 -1.328125 C 16.851562 -0.441406 14.753906 0 12.390625 0 L 2.15625 0 Z M 12.140625 -4.875 C 13.992188 -4.875 15.476562 -5.398438 16.59375 -6.453125 C 17.71875 -7.503906 18.28125 -8.957031 18.28125 -10.8125 C 18.28125 -12.664062 17.71875 -14.117188 16.59375 -15.171875 C 15.476562 -16.222656 13.992188 -16.75 12.140625 -16.75 L 8.28125 -16.75 L 8.28125 -4.875 Z M 12.140625 -4.875 "/></g></g></g><g fill="rgb(1.959229%, 3.919983%, 18.818665%)" fill-opacity="1"><g transform="translate(273.496943, 182.680402)"><g><path d="M 13.0625 0.4375 C 10.78125 0.4375 8.726562 -0.046875 6.90625 -1.015625 C 5.082031 -1.984375 3.648438 -3.320312 2.609375 -5.03125 C 1.566406 -6.738281 1.046875 -8.664062 1.046875 -10.8125 C 1.046875 -12.957031 1.566406 -14.882812 2.609375 -16.59375 C 3.648438 -18.300781 5.082031 -19.640625 6.90625 -20.609375 C 8.726562 -21.578125 10.78125 -22.0625 13.0625 -22.0625 C 15.351562 -22.0625 17.410156 -21.578125 19.234375 -20.609375 C 21.054688 -19.640625 22.484375 -18.300781 23.515625 -16.59375 C 24.554688 -14.882812 25.078125 -12.957031 25.078125 -10.8125 C 25.078125 -8.664062 24.554688 -6.738281 23.515625 -5.03125 C 22.484375 -3.320312 21.054688 -1.984375 19.234375 -1.015625 C 17.410156 -0.046875 15.351562 0.4375 13.0625 0.4375 Z M 13.0625 -4.640625 C 14.15625 -4.640625 15.144531 -4.894531 16.03125 -5.40625 C 16.914062 -5.914062 17.613281 -6.640625 18.125 -7.578125 C 18.644531 -8.515625 18.90625 -9.59375 18.90625 -10.8125 C 18.90625 -12.03125 18.644531 -13.109375 18.125 -14.046875 C 17.613281 -14.984375 16.914062 -15.707031 16.03125 -16.21875 C 15.144531 -16.726562 14.15625 -16.984375 13.0625 -16.984375 C 11.96875 -16.984375 10.976562 -16.726562 10.09375 -16.21875 C 9.207031 -15.707031 8.507812 -14.984375 8 -14.046875 C 7.488281 -13.109375 7.234375 -12.03125 7.234375 -10.8125 C 7.234375 -9.59375 7.488281 -8.515625 8 -7.578125 C 8.507812 -6.640625 9.207031 -5.914062 10.09375 -5.40625 C 10.976562 -4.894531 11.96875 -4.640625 13.0625 -4.640625 Z M 13.0625 -4.640625 "/></g></g></g><g fill="rgb(1.959229%, 3.919983%, 18.818665%)" fill-opacity="1"><g transform="translate(299.634254, 182.680402)"><g><path d="M 11.609375 -5.75 L 8.28125 -5.75 L 8.28125 0 L 2.15625 0 L 2.15625 -21.625 L 12.046875 -21.625 C 14.003906 -21.625 15.703125 -21.296875 17.140625 -20.640625 C 18.585938 -19.992188 19.703125 -19.066406 20.484375 -17.859375 C 21.265625 -16.660156 21.65625 -15.25 21.65625 -13.625 C 21.65625 -12.0625 21.289062 -10.695312 20.5625 -9.53125 C 19.832031 -8.363281 18.785156 -7.453125 17.421875 -6.796875 L 22.09375 0 L 15.53125 0 Z M 15.46875 -13.625 C 15.46875 -14.632812 15.148438 -15.414062 14.515625 -15.96875 C 13.878906 -16.519531 12.929688 -16.796875 11.671875 -16.796875 L 8.28125 -16.796875 L 8.28125 -10.46875 L 11.671875 -10.46875 C 12.929688 -10.46875 13.878906 -10.738281 14.515625 -11.28125 C 15.148438 -11.832031 15.46875 -12.613281 15.46875 -13.625 Z M 15.46875 -13.625 "/></g></g></g><g fill="rgb(1.959229%, 3.919983%, 18.818665%)" fill-opacity="1"><g transform="translate(322.496682, 182.680402)"><g><path d="M 16.65625 -4.203125 L 7.5 -4.203125 L 5.8125 0 L -0.4375 0 L 9.109375 -21.625 L 15.140625 -21.625 L 24.71875 0 L 18.34375 0 Z M 14.859375 -8.71875 L 12.078125 -15.625 L 9.296875 -8.71875 Z M 14.859375 -8.71875 "/></g></g></g><path fill="rgb(0%, 63.139343%, 60.389709%)" d="M 90.390625 172.738281 C 80.539062 182.621094 80.539062 198.644531 90.390625 208.527344 C 100.246094 218.40625 116.226562 218.40625 126.082031 208.527344 L 161.769531 172.738281 C 171.621094 162.859375 171.621094 146.835938 161.769531 136.953125 C 151.914062 127.074219 135.933594 127.074219 126.082031 136.953125 Z M 90.390625 172.738281 " fill-opacity="1" fill-rule="nonzero"/><path fill="rgb(18.818665%, 26.669312%, 59.999084%)" d="M 90.390625 172.738281 C 100.246094 162.859375 100.246094 146.835938 90.390625 136.953125 C 80.539062 127.074219 64.558594 127.074219 54.703125 136.953125 L 19.015625 172.738281 C 9.164062 182.621094 9.164062 198.644531 19.015625 208.527344 C 28.871094 218.40625 44.851562 218.40625 54.703125 208.527344 Z M 90.390625 172.738281 " fill-opacity="1" fill-rule="nonzero"/><path fill="rgb(100%, 70.199585%, 0%)" d="M 90.390625 208.527344 C 100.246094 218.40625 116.226562 218.40625 126.082031 208.527344 C 135.933594 198.644531 135.933594 182.621094 126.082031 172.738281 L 90.390625 136.953125 C 80.539062 127.074219 64.558594 127.074219 54.703125 136.953125 C 44.851562 146.835938 44.851562 162.859375 54.703125 172.738281 Z M 90.390625 208.527344 " fill-opacity="1" fill-rule="nonzero"/><path fill="rgb(93.728638%, 93.728638%, 93.728638%)" d="M 122.855469 207.671875 C 122.414062 208.054688 121.964844 208.421875 121.496094 208.765625 C 121.964844 208.425781 122.414062 208.058594 122.855469 207.671875 Z M 122.855469 207.671875 " fill-opacity="1" fill-rule="nonzero"/><path fill="rgb(93.728638%, 93.728638%, 93.728638%)" d="M 88.410156 170.742188 L 88.402344 170.746094 L 88.398438 170.75 L 88.40625 170.746094 Z M 88.410156 170.742188 " fill-opacity="1" fill-rule="nonzero"/><path fill="rgb(93.728638%, 93.728638%, 93.728638%)" d="M 120.578125 209.40625 C 119.957031 209.816406 119.320312 210.195312 118.667969 210.539062 C 119.320312 210.195312 119.957031 209.820312 120.578125 209.40625 Z M 120.578125 209.40625 " fill-opacity="1" fill-rule="nonzero"/><path fill="rgb(93.728638%, 93.728638%, 93.728638%)" d="M 118.667969 210.539062 C 118.160156 210.804688 117.636719 211.046875 117.117188 211.269531 C 117.636719 211.046875 118.160156 210.804688 118.667969 210.539062 Z M 118.667969 210.539062 " fill-opacity="1" fill-rule="nonzero"/><path fill="rgb(93.728638%, 93.728638%, 93.728638%)" d="M 116.292969 211.609375 C 115.125 212.058594 113.925781 212.410156 112.710938 212.65625 C 113.925781 212.410156 115.125 212.058594 116.292969 211.609375 Z M 116.292969 211.609375 " fill-opacity="1" fill-rule="nonzero"/><path fill="rgb(93.728638%, 93.728638%, 93.728638%)" d="M 92.378906 174.742188 L 92.382812 174.738281 C 92.382812 174.738281 92.386719 174.734375 92.386719 174.734375 L 92.382812 174.738281 C 92.382812 174.738281 92.382812 174.738281 92.378906 174.742188 Z M 92.378906 174.742188 " fill-opacity="1" fill-rule="nonzero"/><path fill="rgb(93.728638%, 93.728638%, 93.728638%)" d="M 117.117188 211.273438 C 116.84375 211.390625 116.570312 211.503906 116.292969 211.609375 C 116.570312 211.503906 116.84375 211.390625 117.117188 211.273438 Z M 117.117188 211.273438 " fill-opacity="1" fill-rule="nonzero"/><path fill="rgb(93.728638%, 93.728638%, 93.728638%)" d="M 124.09375 206.535156 C 123.695312 206.933594 123.28125 207.308594 122.859375 207.675781 C 123.28125 207.308594 123.691406 206.933594 124.09375 206.535156 Z M 124.09375 206.535156 " fill-opacity="1" fill-rule="nonzero"/><path fill="rgb(93.728638%, 93.728638%, 93.728638%)" d="M 112.710938 212.65625 C 112.585938 212.679688 112.46875 212.703125 112.34375 212.730469 C 112.46875 212.703125 112.589844 212.679688 112.710938 212.65625 Z M 112.710938 212.65625 " fill-opacity="1" fill-rule="nonzero"/><path fill="rgb(93.728638%, 93.728638%, 93.728638%)" d="M 163.761719 134.960938 C 152.824219 123.992188 135.03125 123.992188 124.09375 134.960938 L 108.238281 150.859375 L 92.382812 134.960938 C 81.445312 123.992188 63.652344 123.992188 52.714844 134.960938 L 17.027344 170.746094 C 6.089844 181.710938 6.089844 199.554688 17.027344 210.519531 C 27.964844 221.488281 45.757812 221.488281 56.695312 210.519531 L 72.550781 194.621094 L 88.40625 210.519531 C 99.34375 221.488281 117.136719 221.488281 128.074219 210.519531 L 163.761719 174.734375 C 174.695312 163.769531 174.695312 145.925781 163.761719 134.960938 Z M 52.714844 206.535156 C 43.972656 215.300781 29.746094 215.300781 21.003906 206.535156 C 12.261719 197.765625 12.261719 183.503906 21.003906 174.738281 L 44.792969 150.886719 C 43.597656 159.34375 46.242188 168.246094 52.714844 174.738281 L 68.570312 190.636719 Z M 124.09375 206.535156 C 123.695312 206.933594 123.28125 207.308594 122.859375 207.675781 C 122.417969 208.058594 121.96875 208.425781 121.5 208.769531 C 121.199219 208.996094 120.890625 209.207031 120.578125 209.410156 C 119.957031 209.820312 119.320312 210.199219 118.667969 210.542969 C 118.160156 210.808594 117.636719 211.050781 117.117188 211.273438 C 116.84375 211.390625 116.574219 211.503906 116.292969 211.609375 C 115.125 212.058594 113.925781 212.410156 112.710938 212.65625 C 112.585938 212.679688 112.46875 212.703125 112.34375 212.730469 C 105.324219 214.03125 97.800781 211.96875 92.382812 206.535156 L 80.480469 194.601562 L 76.523438 190.632812 L 72.546875 186.644531 L 56.691406 170.746094 C 47.945312 161.976562 47.945312 147.714844 56.691406 138.949219 C 65.433594 130.179688 79.660156 130.179688 88.398438 138.949219 L 100.300781 150.882812 L 104.253906 154.847656 L 108.234375 158.839844 L 124.089844 174.738281 C 132.835938 183.503906 132.835938 197.765625 124.09375 206.535156 Z M 159.78125 170.746094 L 135.996094 194.597656 C 137.1875 186.136719 134.546875 177.234375 128.074219 170.746094 L 112.214844 154.847656 L 128.074219 138.949219 C 136.816406 130.183594 151.042969 130.183594 159.78125 138.949219 C 168.523438 147.71875 168.523438 161.980469 159.78125 170.746094 Z M 159.78125 170.746094 " fill-opacity="1" fill-rule="nonzero"/></svg>