<svg xmlns="http://www.w3.org/2000/svg" xmlns:xlink="http://www.w3.org/1999/xlink" width="500" zoomAndPan="magnify" viewBox="0 0 375 374.999991" height="500" preserveAspectRatio="xMidYMid meet" version="1.0"><defs><g/><clipPath id="id1"><path d="M 151.003906 115.382812 L 224.347656 115.382812 L 224.347656 188.726562 L 151.003906 188.726562 Z M 151.003906 115.382812 " clip-rule="nonzero"/></clipPath><clipPath id="id2"><path d="M 114.507812 151.878906 L 187.851562 151.878906 L 187.851562 209.898438 L 114.507812 209.898438 Z M 114.507812 151.878906 " clip-rule="nonzero"/></clipPath><clipPath id="id3"><path d="M 187.5 151.878906 L 260.84375 151.878906 L 260.84375 209.898438 L 187.5 209.898438 Z M 187.5 151.878906 " clip-rule="nonzero"/></clipPath><clipPath id="id4"><path d="M 224 115.382812 L 297.339844 115.382812 L 297.339844 188.726562 L 224 188.726562 Z M 224 115.382812 " clip-rule="nonzero"/></clipPath><clipPath id="id5"><path d="M 78.007812 115.382812 L 151.355469 115.382812 L 151.355469 188.726562 L 78.007812 188.726562 Z M 78.007812 115.382812 " clip-rule="nonzero"/></clipPath></defs><g clip-path="url(#id1)"><path fill="rgb(0%, 67.059326%, 100%)" d="M 187.683594 115.367188 L 224.351562 152.039062 L 187.683594 188.707031 L 151.015625 152.039062 Z M 187.683594 115.367188 " fill-opacity="1" fill-rule="nonzero"/></g><g clip-path="url(#id2)"><path fill="rgb(42.349243%, 18.818665%, 92.939758%)" d="M 151.1875 151.867188 L 187.613281 187.894531 L 175.378906 199.996094 C 174.585938 200.777344 173.757812 201.523438 172.890625 202.226562 C 172.023438 202.929688 171.125 203.585938 170.195312 204.203125 C 169.261719 204.816406 168.300781 205.386719 167.316406 205.910156 C 166.328125 206.429688 165.316406 206.902344 164.28125 207.328125 C 163.246094 207.75 162.191406 208.125 161.121094 208.445312 C 160.046875 208.765625 158.960938 209.035156 157.863281 209.253906 C 156.765625 209.46875 155.65625 209.628906 154.542969 209.738281 C 153.429688 209.847656 152.308594 209.902344 151.191406 209.902344 C 150.070312 209.902344 148.953125 209.847656 147.835938 209.738281 C 146.722656 209.628906 145.617188 209.464844 144.515625 209.25 C 143.417969 209.03125 142.332031 208.761719 141.261719 208.441406 C 140.1875 208.121094 139.136719 207.746094 138.101562 207.320312 C 137.066406 206.898438 136.054688 206.425781 135.066406 205.902344 C 134.078125 205.378906 133.121094 204.808594 132.1875 204.195312 C 131.257812 203.578125 130.359375 202.917969 129.492188 202.214844 C 128.628906 201.511719 127.800781 200.769531 127.007812 199.984375 L 114.769531 187.882812 L 151.199219 151.855469 Z M 151.1875 151.867188 " fill-opacity="1" fill-rule="nonzero"/></g><g clip-path="url(#id3)"><path fill="rgb(10.5896%, 90.19928%, 83.918762%)" d="M 224.179688 151.867188 L 260.609375 187.894531 L 248.371094 199.996094 C 247.578125 200.777344 246.75 201.523438 245.882812 202.226562 C 245.019531 202.929688 244.117188 203.585938 243.1875 204.203125 C 242.257812 204.816406 241.296875 205.386719 240.308594 205.910156 C 239.320312 206.429688 238.308594 206.902344 237.273438 207.328125 C 236.238281 207.75 235.183594 208.125 234.113281 208.445312 C 233.039062 208.765625 231.957031 209.035156 230.855469 209.253906 C 229.757812 209.46875 228.652344 209.628906 227.535156 209.738281 C 226.421875 209.847656 225.304688 209.902344 224.183594 209.902344 C 223.0625 209.902344 221.945312 209.847656 220.832031 209.738281 C 219.714844 209.628906 218.609375 209.464844 217.511719 209.25 C 216.414062 209.03125 215.328125 208.761719 214.253906 208.441406 C 213.183594 208.121094 212.128906 207.746094 211.09375 207.320312 C 210.058594 206.898438 209.046875 206.425781 208.0625 205.902344 C 207.074219 205.378906 206.113281 204.808594 205.183594 204.195312 C 204.25 203.578125 203.351562 202.917969 202.488281 202.214844 C 201.621094 201.511719 200.792969 200.769531 200 199.984375 L 187.761719 187.882812 L 224.191406 151.855469 Z M 224.179688 151.867188 " fill-opacity="1" fill-rule="nonzero"/></g><g clip-path="url(#id4)"><path fill="rgb(10.5896%, 90.19928%, 83.918762%)" d="M 260.675781 115.367188 L 297.347656 152.039062 L 260.675781 188.707031 L 224.007812 152.039062 Z M 260.675781 115.367188 " fill-opacity="1" fill-rule="nonzero"/></g><g clip-path="url(#id5)"><path fill="rgb(42.349243%, 18.818665%, 92.939758%)" d="M 114.691406 115.367188 L 151.359375 152.039062 L 114.691406 188.707031 L 78.019531 152.039062 Z M 114.691406 115.367188 " fill-opacity="1" fill-rule="nonzero"/></g><g fill="rgb(42.349243%, 18.818665%, 92.939758%)" fill-opacity="1"><g transform="translate(85.897829, 248.532449)"><g><path d="M 9.5 0 L 20.191406 0 L 26.300781 -14.632812 L 26.363281 -14.632812 L 32.410156 0 L 43.101562 0 L 52.601562 -21.996094 L 42.796875 -21.996094 L 37.390625 -7.332031 L 37.328125 -7.332031 L 31.496094 -21.996094 L 21.109375 -21.996094 L 15.367188 -7.332031 L 15.304688 -7.332031 L 9.804688 -21.996094 L -0.03125 -21.996094 Z M 9.5 0 "/></g></g></g><g fill="rgb(42.349243%, 18.818665%, 92.939758%)" fill-opacity="1"><g transform="translate(141.602125, 248.532449)"><g><path d="M -0.03125 0 L 10.050781 0 L 11.363281 -3.359375 L 21.015625 -3.359375 L 22.332031 0 L 32.441406 0 L 22.023438 -21.996094 L 10.722656 -21.996094 Z M 13.011719 -8.554688 L 16.191406 -16.222656 L 16.25 -16.222656 L 19.367188 -8.554688 Z M 13.011719 -8.554688 "/></g></g></g><g fill="rgb(42.349243%, 18.818665%, 92.939758%)" fill-opacity="1"><g transform="translate(177.150619, 248.532449)"><g><path d="M 1.527344 0 L 24.4375 0 L 24.4375 -7.027344 L 11.300781 -7.027344 L 11.300781 -21.996094 L 1.527344 -21.996094 Z M 1.527344 0 "/></g></g></g><g fill="rgb(42.349243%, 18.818665%, 92.939758%)" fill-opacity="1"><g transform="translate(205.308645, 248.532449)"><g><path d="M 1.527344 0 L 24.4375 0 L 24.4375 -7.027344 L 11.300781 -7.027344 L 11.300781 -21.996094 L 1.527344 -21.996094 Z M 1.527344 0 "/></g></g></g><g fill="rgb(42.349243%, 18.818665%, 92.939758%)" fill-opacity="1"><g transform="translate(233.466671, 248.532449)"><g><path d="M 1.527344 0 L 25.660156 0 L 25.660156 -5.804688 L 10.996094 -5.804688 L 10.996094 -8.707031 L 24.132812 -8.707031 L 24.132812 -13.59375 L 10.996094 -13.59375 L 10.996094 -16.191406 L 25.355469 -16.191406 L 25.355469 -21.996094 L 1.527344 -21.996094 Z M 1.527344 0 "/></g></g></g><g fill="rgb(42.349243%, 18.818665%, 92.939758%)" fill-opacity="1"><g transform="translate(262.846262, 248.532449)"><g><path d="M 8.246094 0 L 18.023438 0 L 18.023438 -15.273438 L 25.964844 -15.273438 L 25.964844 -21.996094 L 0.304688 -21.996094 L 0.304688 -15.273438 L 8.246094 -15.273438 Z M 8.246094 0 "/></g></g></g><g fill="rgb(65.098572%, 65.098572%, 65.098572%)" fill-opacity="1"><g transform="translate(121.898434, 270.548185)"><g><path d="M 3.511719 0.234375 C 5.140625 0.234375 6.414062 -0.789062 6.613281 -2.25 L 5.351562 -2.453125 C 5.222656 -1.519531 4.46875 -0.882812 3.535156 -0.882812 C 2.441406 -0.882812 1.640625 -1.734375 1.640625 -2.996094 C 1.640625 -4.257812 2.382812 -5.105469 3.394531 -5.105469 C 4.136719 -5.105469 4.785156 -4.609375 4.976562 -3.785156 L 6.214844 -4.089844 C 5.929688 -5.363281 4.796875 -6.238281 3.371094 -6.238281 C 1.554688 -6.238281 0.304688 -4.90625 0.304688 -2.996094 C 0.304688 -1.097656 1.613281 0.234375 3.511719 0.234375 Z M 3.511719 0.234375 "/></g></g></g><g fill="rgb(65.098572%, 65.098572%, 65.098572%)" fill-opacity="1"><g transform="translate(128.724274, 270.548185)"><g><path d="M 3.511719 -6.214844 C 2.757812 -6.214844 2.132812 -5.765625 1.804688 -5.035156 L 1.792969 -5.035156 L 1.613281 -6 L 0.53125 -6 L 0.53125 0 L 1.863281 0 L 1.863281 -3.277344 C 1.863281 -4.433594 2.371094 -5.128906 3.195312 -5.128906 C 3.785156 -5.128906 4.171875 -4.691406 4.246094 -3.902344 L 5.375 -4.234375 C 5.246094 -5.492188 4.539062 -6.214844 3.511719 -6.214844 Z M 3.511719 -6.214844 "/></g></g></g><g fill="rgb(65.098572%, 65.098572%, 65.098572%)" fill-opacity="1"><g transform="translate(134.312274, 270.548185)"><g><path d="M 2.863281 2.710938 C 4.859375 2.710938 6.144531 1.589844 6.144531 -0.257812 L 6.128906 -6 L 4.808594 -6 L 4.808594 -2.417969 C 4.808594 -1.449219 4.078125 -0.765625 3.195312 -0.765625 C 2.335938 -0.765625 1.816406 -1.390625 1.816406 -2.300781 L 1.816406 -6 L 0.484375 -6 L 0.484375 -2.144531 C 0.484375 -0.671875 1.390625 0.367188 2.816406 0.367188 C 3.644531 0.367188 4.410156 -0.0703125 4.808594 -0.800781 L 4.820312 -0.800781 L 4.820312 -0.28125 C 4.820312 0.871094 4.03125 1.578125 2.78125 1.578125 C 1.804688 1.578125 0.992188 1.132812 0.566406 0.472656 L -0.152344 1.367188 C 0.378906 2.179688 1.484375 2.710938 2.863281 2.710938 Z M 2.863281 2.710938 "/></g></g></g><g fill="rgb(65.098572%, 65.098572%, 65.098572%)" fill-opacity="1"><g transform="translate(140.984866, 270.548185)"><g><path d="M 0.53125 2.476562 L 1.863281 2.476562 L 1.863281 -1.074219 L 1.875 -1.074219 C 2.347656 -0.257812 3.113281 0.210938 4.078125 0.210938 C 5.742188 0.210938 6.945312 -1.109375 6.945312 -2.996094 C 6.945312 -4.882812 5.742188 -6.203125 4.066406 -6.203125 C 3.089844 -6.203125 2.3125 -5.730469 1.851562 -4.90625 L 1.839844 -4.90625 L 1.664062 -6 L 0.53125 -6 Z M 3.714844 -0.953125 C 2.617188 -0.953125 1.816406 -1.839844 1.816406 -2.996094 C 1.816406 -4.160156 2.617188 -5.046875 3.714844 -5.046875 C 4.808594 -5.046875 5.613281 -4.171875 5.613281 -2.996094 C 5.613281 -1.839844 4.808594 -0.953125 3.714844 -0.953125 Z M 3.714844 -0.953125 "/></g></g></g><g fill="rgb(65.098572%, 65.098572%, 65.098572%)" fill-opacity="1"><g transform="translate(148.23511, 270.548185)"><g><path d="M 3.347656 0.234375 C 4.292969 0.234375 5.1875 -0.292969 5.480469 -1.167969 L 4.832031 -1.863281 C 4.632812 -1.214844 4.160156 -0.859375 3.585938 -0.859375 C 2.996094 -0.859375 2.582031 -1.308594 2.582031 -1.96875 L 2.570312 -4.953125 L 5.117188 -4.953125 L 5.117188 -6 L 2.570312 -6 L 2.582031 -8.003906 L 1.25 -7.710938 L 1.25 -6 L 0.0234375 -6 L 0.0234375 -4.953125 L 1.25 -4.953125 L 1.25 -1.792969 C 1.25 -0.566406 2.074219 0.234375 3.347656 0.234375 Z M 3.347656 0.234375 "/></g></g></g><g fill="rgb(65.098572%, 65.098572%, 65.098572%)" fill-opacity="1"><g transform="translate(153.799524, 270.548185)"><g><path d="M 3.574219 0.234375 C 5.542969 0.234375 6.839844 -1.050781 6.839844 -2.996094 C 6.839844 -4.953125 5.542969 -6.238281 3.574219 -6.238281 C 1.601562 -6.238281 0.304688 -4.953125 0.304688 -2.996094 C 0.304688 -1.050781 1.601562 0.234375 3.574219 0.234375 Z M 3.574219 -0.894531 C 2.382812 -0.894531 1.628906 -1.722656 1.628906 -2.996094 C 1.628906 -4.269531 2.382812 -5.082031 3.574219 -5.082031 C 4.75 -5.082031 5.519531 -4.269531 5.519531 -2.996094 C 5.519531 -1.722656 4.75 -0.894531 3.574219 -0.894531 Z M 3.574219 -0.894531 "/></g></g></g><g fill="rgb(65.098572%, 65.098572%, 65.098572%)" fill-opacity="1"><g transform="translate(160.94367, 270.548185)"><g/></g></g><g fill="rgb(65.098572%, 65.098572%, 65.098572%)" fill-opacity="1"><g transform="translate(163.867349, 270.548185)"><g><path d="M 3.511719 0.234375 C 5.140625 0.234375 6.414062 -0.789062 6.613281 -2.25 L 5.351562 -2.453125 C 5.222656 -1.519531 4.46875 -0.882812 3.535156 -0.882812 C 2.441406 -0.882812 1.640625 -1.734375 1.640625 -2.996094 C 1.640625 -4.257812 2.382812 -5.105469 3.394531 -5.105469 C 4.136719 -5.105469 4.785156 -4.609375 4.976562 -3.785156 L 6.214844 -4.089844 C 5.929688 -5.363281 4.796875 -6.238281 3.371094 -6.238281 C 1.554688 -6.238281 0.304688 -4.90625 0.304688 -2.996094 C 0.304688 -1.097656 1.613281 0.234375 3.511719 0.234375 Z M 3.511719 0.234375 "/></g></g></g><g fill="rgb(65.098572%, 65.098572%, 65.098572%)" fill-opacity="1"><g transform="translate(170.693189, 270.548185)"><g><path d="M 2.582031 0.199219 C 3.585938 0.199219 4.328125 -0.234375 4.808594 -0.992188 L 4.820312 -0.992188 L 4.988281 0 L 6.144531 0 L 6.144531 -6 L 4.808594 -6 L 4.808594 -2.652344 C 4.808594 -1.628906 4.101562 -0.917969 3.113281 -0.917969 C 2.324219 -0.917969 1.816406 -1.460938 1.816406 -2.324219 L 1.816406 -6 L 0.484375 -6 L 0.484375 -2.003906 C 0.484375 -0.625 1.273438 0.199219 2.582031 0.199219 Z M 2.582031 0.199219 "/></g></g></g><g fill="rgb(65.098572%, 65.098572%, 65.098572%)" fill-opacity="1"><g transform="translate(177.377568, 270.548185)"><g><path d="M 3.511719 -6.214844 C 2.757812 -6.214844 2.132812 -5.765625 1.804688 -5.035156 L 1.792969 -5.035156 L 1.613281 -6 L 0.53125 -6 L 0.53125 0 L 1.863281 0 L 1.863281 -3.277344 C 1.863281 -4.433594 2.371094 -5.128906 3.195312 -5.128906 C 3.785156 -5.128906 4.171875 -4.691406 4.246094 -3.902344 L 5.375 -4.234375 C 5.246094 -5.492188 4.539062 -6.214844 3.511719 -6.214844 Z M 3.511719 -6.214844 "/></g></g></g><g fill="rgb(65.098572%, 65.098572%, 65.098572%)" fill-opacity="1"><g transform="translate(182.965569, 270.548185)"><g><path d="M 3.511719 -6.214844 C 2.757812 -6.214844 2.132812 -5.765625 1.804688 -5.035156 L 1.792969 -5.035156 L 1.613281 -6 L 0.53125 -6 L 0.53125 0 L 1.863281 0 L 1.863281 -3.277344 C 1.863281 -4.433594 2.371094 -5.128906 3.195312 -5.128906 C 3.785156 -5.128906 4.171875 -4.691406 4.246094 -3.902344 L 5.375 -4.234375 C 5.246094 -5.492188 4.539062 -6.214844 3.511719 -6.214844 Z M 3.511719 -6.214844 "/></g></g></g><g fill="rgb(65.098572%, 65.098572%, 65.098572%)" fill-opacity="1"><g transform="translate(188.55357, 270.548185)"><g><path d="M 3.761719 0.234375 C 5.070312 0.234375 6.203125 -0.378906 6.625 -1.261719 L 5.742188 -1.804688 C 5.386719 -1.238281 4.644531 -0.8125 3.796875 -0.8125 C 2.652344 -0.8125 1.804688 -1.53125 1.6875 -2.605469 L 6.425781 -2.605469 C 6.460938 -2.746094 6.472656 -2.949219 6.472656 -3.113281 C 6.460938 -4.941406 5.269531 -6.238281 3.453125 -6.238281 C 1.601562 -6.238281 0.304688 -4.917969 0.304688 -3.042969 C 0.304688 -1.132812 1.746094 0.234375 3.761719 0.234375 Z M 1.6875 -3.511719 C 1.816406 -4.503906 2.511719 -5.1875 3.453125 -5.1875 C 4.375 -5.1875 5.011719 -4.574219 5.105469 -3.511719 Z M 1.6875 -3.511719 "/></g></g></g><g fill="rgb(65.098572%, 65.098572%, 65.098572%)" fill-opacity="1"><g transform="translate(195.438358, 270.548185)"><g><path d="M 4.089844 -6.203125 C 3.089844 -6.203125 2.347656 -5.765625 1.863281 -5.011719 L 1.851562 -5.011719 L 1.6875 -6 L 0.53125 -6 L 0.53125 0 L 1.863281 0 L 1.863281 -3.347656 C 1.863281 -4.375 2.570312 -5.082031 3.5625 -5.082031 C 4.351562 -5.082031 4.859375 -4.539062 4.859375 -3.679688 L 4.859375 0 L 6.191406 0 L 6.191406 -3.996094 C 6.191406 -5.375 5.398438 -6.203125 4.089844 -6.203125 Z M 4.089844 -6.203125 "/></g></g></g><g fill="rgb(65.098572%, 65.098572%, 65.098572%)" fill-opacity="1"><g transform="translate(202.110949, 270.548185)"><g><path d="M 3.511719 0.234375 C 5.140625 0.234375 6.414062 -0.789062 6.613281 -2.25 L 5.351562 -2.453125 C 5.222656 -1.519531 4.46875 -0.882812 3.535156 -0.882812 C 2.441406 -0.882812 1.640625 -1.734375 1.640625 -2.996094 C 1.640625 -4.257812 2.382812 -5.105469 3.394531 -5.105469 C 4.136719 -5.105469 4.785156 -4.609375 4.976562 -3.785156 L 6.214844 -4.089844 C 5.929688 -5.363281 4.796875 -6.238281 3.371094 -6.238281 C 1.554688 -6.238281 0.304688 -4.90625 0.304688 -2.996094 C 0.304688 -1.097656 1.613281 0.234375 3.511719 0.234375 Z M 3.511719 0.234375 "/></g></g></g><g fill="rgb(65.098572%, 65.098572%, 65.098572%)" fill-opacity="1"><g transform="translate(208.936789, 270.548185)"><g><path d="M 2.863281 2.710938 C 4.859375 2.710938 6.144531 1.589844 6.144531 -0.257812 L 6.128906 -6 L 4.808594 -6 L 4.808594 -2.417969 C 4.808594 -1.449219 4.078125 -0.765625 3.195312 -0.765625 C 2.335938 -0.765625 1.816406 -1.390625 1.816406 -2.300781 L 1.816406 -6 L 0.484375 -6 L 0.484375 -2.144531 C 0.484375 -0.671875 1.390625 0.367188 2.816406 0.367188 C 3.644531 0.367188 4.410156 -0.0703125 4.808594 -0.800781 L 4.820312 -0.800781 L 4.820312 -0.28125 C 4.820312 0.871094 4.03125 1.578125 2.78125 1.578125 C 1.804688 1.578125 0.992188 1.132812 0.566406 0.472656 L -0.152344 1.367188 C 0.378906 2.179688 1.484375 2.710938 2.863281 2.710938 Z M 2.863281 2.710938 "/></g></g></g><g fill="rgb(65.098572%, 65.098572%, 65.098572%)" fill-opacity="1"><g transform="translate(215.609381, 270.548185)"><g/></g></g><g fill="rgb(65.098572%, 65.098572%, 65.098572%)" fill-opacity="1"><g transform="translate(218.53306, 270.548185)"><g><path d="M 2.015625 0 L 3.609375 0 L 5.023438 -4.632812 L 5.046875 -4.632812 L 6.496094 0 L 8.0625 0 L 9.972656 -6 L 8.628906 -6 L 7.25 -1.214844 L 7.238281 -1.214844 L 5.71875 -6 L 4.339844 -6 L 2.839844 -1.238281 L 2.828125 -1.238281 L 1.449219 -6 L 0.09375 -6 Z M 2.015625 0 "/></g></g></g><g fill="rgb(65.098572%, 65.098572%, 65.098572%)" fill-opacity="1"><g transform="translate(228.600884, 270.548185)"><g><path d="M 2.441406 0.210938 C 3.476562 0.210938 4.292969 -0.269531 4.691406 -1.015625 L 4.703125 -1.015625 L 4.726562 -0.765625 C 4.773438 -0.222656 5.246094 0.210938 5.894531 0.210938 C 6.402344 0.210938 6.957031 -0.0117188 7.261719 -0.378906 L 6.804688 -1.132812 C 6.671875 -0.941406 6.484375 -0.8125 6.332031 -0.8125 C 6.128906 -0.8125 6.011719 -0.980469 6.011719 -1.226562 L 6.011719 -3.925781 C 6.011719 -5.339844 4.90625 -6.238281 3.265625 -6.238281 C 1.640625 -6.238281 0.472656 -5.316406 0.367188 -4.210938 L 1.628906 -3.902344 C 1.675781 -4.5625 2.335938 -5.175781 3.277344 -5.175781 C 4.125 -5.175781 4.703125 -4.761719 4.703125 -4.125 C 4.703125 -3.878906 4.515625 -3.714844 4.234375 -3.679688 L 2.898438 -3.523438 C 1.027344 -3.300781 0.210938 -2.546875 0.210938 -1.554688 C 0.210938 -0.496094 1.132812 0.210938 2.441406 0.210938 Z M 2.839844 -0.8125 C 2.085938 -0.8125 1.53125 -1.144531 1.53125 -1.664062 C 1.53125 -2.121094 1.933594 -2.523438 3.160156 -2.664062 L 4.679688 -2.839844 L 4.679688 -2.511719 C 4.679688 -1.507812 3.902344 -0.8125 2.839844 -0.8125 Z M 2.839844 -0.8125 "/></g></g></g><g fill="rgb(65.098572%, 65.098572%, 65.098572%)" fill-opacity="1"><g transform="translate(235.862927, 270.548185)"><g><path d="M 0.53125 0 L 1.863281 0 L 1.863281 -8.710938 L 0.53125 -8.710938 Z M 0.53125 0 "/></g></g></g><g fill="rgb(65.098572%, 65.098572%, 65.098572%)" fill-opacity="1"><g transform="translate(238.256104, 270.548185)"><g><path d="M 0.53125 0 L 1.863281 0 L 1.863281 -8.710938 L 0.53125 -8.710938 Z M 0.53125 0 "/></g></g></g><g fill="rgb(65.098572%, 65.098572%, 65.098572%)" fill-opacity="1"><g transform="translate(240.649281, 270.548185)"><g><path d="M 3.761719 0.234375 C 5.070312 0.234375 6.203125 -0.378906 6.625 -1.261719 L 5.742188 -1.804688 C 5.386719 -1.238281 4.644531 -0.8125 3.796875 -0.8125 C 2.652344 -0.8125 1.804688 -1.53125 1.6875 -2.605469 L 6.425781 -2.605469 C 6.460938 -2.746094 6.472656 -2.949219 6.472656 -3.113281 C 6.460938 -4.941406 5.269531 -6.238281 3.453125 -6.238281 C 1.601562 -6.238281 0.304688 -4.917969 0.304688 -3.042969 C 0.304688 -1.132812 1.746094 0.234375 3.761719 0.234375 Z M 1.6875 -3.511719 C 1.816406 -4.503906 2.511719 -5.1875 3.453125 -5.1875 C 4.375 -5.1875 5.011719 -4.574219 5.105469 -3.511719 Z M 1.6875 -3.511719 "/></g></g></g><g fill="rgb(65.098572%, 65.098572%, 65.098572%)" fill-opacity="1"><g transform="translate(247.534069, 270.548185)"><g><path d="M 3.347656 0.234375 C 4.292969 0.234375 5.1875 -0.292969 5.480469 -1.167969 L 4.832031 -1.863281 C 4.632812 -1.214844 4.160156 -0.859375 3.585938 -0.859375 C 2.996094 -0.859375 2.582031 -1.308594 2.582031 -1.96875 L 2.570312 -4.953125 L 5.117188 -4.953125 L 5.117188 -6 L 2.570312 -6 L 2.582031 -8.003906 L 1.25 -7.710938 L 1.25 -6 L 0.0234375 -6 L 0.0234375 -4.953125 L 1.25 -4.953125 L 1.25 -1.792969 C 1.25 -0.566406 2.074219 0.234375 3.347656 0.234375 Z M 3.347656 0.234375 "/></g></g></g></svg>