<svg xmlns="http://www.w3.org/2000/svg" xmlns:xlink="http://www.w3.org/1999/xlink" width="112" zoomAndPan="magnify" viewBox="0 0 84 30.000001" height="40" preserveAspectRatio="xMidYMid meet" version="1.0"><defs><g/><clipPath id="id1"><path d="M 23 13 L 38.371094 13 L 38.371094 22.421875 L 23 22.421875 Z M 23 13 " clip-rule="nonzero"/></clipPath><clipPath id="id2"><path d="M 21 6.457031 L 32 6.457031 L 32 22.421875 L 21 22.421875 Z M 21 6.457031 " clip-rule="nonzero"/></clipPath><clipPath id="id3"><path d="M 4.257812 13 L 20 13 L 20 22.421875 L 4.257812 22.421875 Z M 4.257812 13 " clip-rule="nonzero"/></clipPath><clipPath id="id4"><path d="M 10 6.457031 L 22 6.457031 L 22 22.421875 L 10 22.421875 Z M 10 6.457031 " clip-rule="nonzero"/></clipPath></defs><path fill="rgb(82.348633%, 63.139343%, 7.449341%)" d="M 31.175781 11.5 L 29.953125 16.984375 L 23.226562 21.714844 L 30.695312 18.945312 L 35.527344 9.648438 L 31.175781 11.5 " fill-opacity="1" fill-rule="nonzero"/><g clip-path="url(#id1)"><path fill="rgb(82.348633%, 63.139343%, 7.449341%)" d="M 33.683594 14.414062 L 31.074219 19.398438 L 23.347656 22.234375 L 31.277344 21.480469 L 38.371094 13.742188 L 33.683594 14.414062 " fill-opacity="1" fill-rule="nonzero"/></g><g clip-path="url(#id2)"><path fill="rgb(82.348633%, 63.139343%, 7.449341%)" d="M 21.316406 14.578125 L 31.765625 6.457031 L 29.484375 16.675781 L 21.316406 22.421875 L 21.316406 14.578125 " fill-opacity="1" fill-rule="nonzero"/></g><path fill="rgb(0.779724%, 12.939453%, 47.44873%)" d="M 11.453125 11.5 L 12.675781 16.984375 L 19.402344 21.714844 L 11.933594 18.945312 L 7.101562 9.648438 L 11.453125 11.5 " fill-opacity="1" fill-rule="nonzero"/><g clip-path="url(#id3)"><path fill="rgb(0.779724%, 12.939453%, 47.44873%)" d="M 8.945312 14.414062 L 11.554688 19.398438 L 19.28125 22.234375 L 11.351562 21.480469 L 4.257812 13.742188 L 8.945312 14.414062 " fill-opacity="1" fill-rule="nonzero"/></g><g clip-path="url(#id4)"><path fill="rgb(0.779724%, 12.939453%, 47.44873%)" d="M 21.316406 14.578125 L 10.863281 6.457031 L 13.144531 16.675781 L 21.316406 22.421875 L 21.316406 14.578125 " fill-opacity="1" fill-rule="nonzero"/></g><g fill="rgb(0.779724%, 12.939453%, 47.44873%)" fill-opacity="1"><g transform="translate(43.640291, 16.840277)"><g><path d="M 0.40625 -4.125 L 2.203125 -4.125 C 2.734375 -4.125 3.144531 -4 3.4375 -3.75 C 3.726562 -3.5 3.875 -3.144531 3.875 -2.6875 C 3.875 -2.207031 3.726562 -1.832031 3.4375 -1.5625 C 3.144531 -1.289062 2.734375 -1.15625 2.203125 -1.15625 L 1.453125 -1.15625 L 1.453125 0 L 0.40625 0 Z M 1.453125 -3.296875 L 1.453125 -1.984375 L 2.15625 -1.984375 C 2.382812 -1.984375 2.5625 -2.039062 2.6875 -2.15625 C 2.8125 -2.269531 2.875 -2.4375 2.875 -2.65625 C 2.875 -2.863281 2.8125 -3.019531 2.6875 -3.125 C 2.5625 -3.238281 2.382812 -3.296875 2.15625 -3.296875 Z M 1.453125 -3.296875 "/></g></g></g><g fill="rgb(0.779724%, 12.939453%, 47.44873%)" fill-opacity="1"><g transform="translate(47.948173, 16.840277)"><g><path d="M 3.15625 -0.765625 L 1.34375 -0.765625 L 1.046875 0 L -0.03125 0 L 1.75 -4.125 L 2.828125 -4.125 L 4.5625 0 L 3.453125 0 Z M 2.84375 -1.5625 L 2.25 -3.078125 L 1.65625 -1.5625 Z M 2.84375 -1.5625 "/></g></g></g><g fill="rgb(0.779724%, 12.939453%, 47.44873%)" fill-opacity="1"><g transform="translate(52.786422, 16.840277)"><g><path d="M 4.21875 0 L 3.296875 0 L 1.390625 -2.53125 L 1.390625 0 L 0.40625 0 L 0.40625 -4.125 L 1.34375 -4.125 L 3.234375 -1.578125 L 3.234375 -4.125 L 4.21875 -4.125 Z M 4.21875 0 "/></g></g></g><g fill="rgb(0.779724%, 12.939453%, 47.44873%)" fill-opacity="1"><g transform="translate(57.71896, 16.840277)"><g><path d="M 0.40625 -4.125 L 2.1875 -4.125 C 2.832031 -4.125 3.359375 -3.929688 3.765625 -3.546875 C 4.171875 -3.171875 4.375 -2.675781 4.375 -2.0625 C 4.375 -1.457031 4.164062 -0.960938 3.75 -0.578125 C 3.34375 -0.191406 2.804688 0 2.140625 0 L 0.40625 0 Z M 1.453125 -3.28125 L 1.453125 -0.84375 L 2.203125 -0.84375 C 2.523438 -0.84375 2.789062 -0.953125 3 -1.171875 C 3.207031 -1.398438 3.3125 -1.691406 3.3125 -2.046875 C 3.3125 -2.410156 3.203125 -2.707031 2.984375 -2.9375 C 2.765625 -3.164062 2.488281 -3.28125 2.15625 -3.28125 Z M 1.453125 -3.28125 "/></g></g></g><g fill="rgb(0.779724%, 12.939453%, 47.44873%)" fill-opacity="1"><g transform="translate(62.539532, 16.840277)"><g><path d="M 2.375 -4.15625 C 3.007812 -4.15625 3.535156 -3.957031 3.953125 -3.5625 C 4.378906 -3.164062 4.59375 -2.664062 4.59375 -2.0625 C 4.59375 -1.46875 4.378906 -0.96875 3.953125 -0.5625 C 3.535156 -0.15625 3.003906 0.046875 2.359375 0.046875 C 1.722656 0.046875 1.191406 -0.148438 0.765625 -0.546875 C 0.347656 -0.953125 0.140625 -1.457031 0.140625 -2.0625 C 0.140625 -2.664062 0.347656 -3.164062 0.765625 -3.5625 C 1.191406 -3.957031 1.726562 -4.15625 2.375 -4.15625 Z M 2.375 -3.28125 C 2.050781 -3.28125 1.773438 -3.160156 1.546875 -2.921875 C 1.328125 -2.691406 1.21875 -2.40625 1.21875 -2.0625 C 1.21875 -1.71875 1.332031 -1.425781 1.5625 -1.1875 C 1.789062 -0.945312 2.0625 -0.828125 2.375 -0.828125 C 2.695312 -0.828125 2.96875 -0.945312 3.1875 -1.1875 C 3.40625 -1.425781 3.515625 -1.71875 3.515625 -2.0625 C 3.515625 -2.40625 3.40625 -2.691406 3.1875 -2.921875 C 2.96875 -3.160156 2.695312 -3.28125 2.375 -3.28125 Z M 2.375 -3.28125 "/></g></g></g><g fill="rgb(0.779724%, 12.939453%, 47.44873%)" fill-opacity="1"><g transform="translate(67.584037, 16.840277)"><g><path d="M 2.890625 0 L 2.28125 -1.15625 L 1.453125 -1.15625 L 1.453125 0 L 0.40625 0 L 0.40625 -4.125 L 2.25 -4.125 C 2.800781 -4.125 3.222656 -4 3.515625 -3.75 C 3.816406 -3.5 3.96875 -3.144531 3.96875 -2.6875 C 3.96875 -2.050781 3.71875 -1.609375 3.21875 -1.359375 L 4.09375 0 Z M 1.453125 -1.984375 L 2.25 -1.984375 C 2.476562 -1.984375 2.65625 -2.039062 2.78125 -2.15625 C 2.90625 -2.269531 2.96875 -2.4375 2.96875 -2.65625 C 2.96875 -2.863281 2.90625 -3.019531 2.78125 -3.125 C 2.65625 -3.238281 2.476562 -3.296875 2.25 -3.296875 L 1.453125 -3.296875 Z M 1.453125 -1.984375 "/></g></g></g><g fill="rgb(0.779724%, 12.939453%, 47.44873%)" fill-opacity="1"><g transform="translate(72.151207, 16.840277)"><g><path d="M 3.15625 -0.765625 L 1.34375 -0.765625 L 1.046875 0 L -0.03125 0 L 1.75 -4.125 L 2.828125 -4.125 L 4.5625 0 L 3.453125 0 Z M 2.84375 -1.5625 L 2.25 -3.078125 L 1.65625 -1.5625 Z M 2.84375 -1.5625 "/></g></g></g></svg>