<svg xmlns="http://www.w3.org/2000/svg" xmlns:xlink="http://www.w3.org/1999/xlink" width="500" zoomAndPan="magnify" viewBox="0 0 375 374.999991" height="500" preserveAspectRatio="xMidYMid meet" version="1.0"><defs><g/><clipPath id="id1"><path d="M 127 157 L 172.882812 157 L 172.882812 183.90625 L 127 183.90625 Z M 127 157 " clip-rule="nonzero"/></clipPath></defs><g fill="rgb(1.959229%, 3.919983%, 18.818665%)" fill-opacity="1"><g transform="translate(183.000375, 175.038125)"><g><path d="M 5.15625 -9.25 C 5.988281 -9.25 6.710938 -9.109375 7.328125 -8.828125 C 7.953125 -8.554688 8.429688 -8.160156 8.765625 -7.640625 C 9.097656 -7.128906 9.265625 -6.523438 9.265625 -5.828125 C 9.265625 -5.128906 9.097656 -4.523438 8.765625 -4.015625 C 8.429688 -3.503906 7.953125 -3.109375 7.328125 -2.828125 C 6.710938 -2.554688 5.988281 -2.421875 5.15625 -2.421875 L 3.546875 -2.421875 L 3.546875 0 L 0.921875 0 L 0.921875 -9.25 Z M 5 -4.484375 C 5.53125 -4.484375 5.929688 -4.597656 6.203125 -4.828125 C 6.484375 -5.066406 6.625 -5.398438 6.625 -5.828125 C 6.625 -6.265625 6.484375 -6.597656 6.203125 -6.828125 C 5.929688 -7.066406 5.53125 -7.1875 5 -7.1875 L 3.546875 -7.1875 L 3.546875 -4.484375 Z M 5 -4.484375 "/></g></g></g><g fill="rgb(1.959229%, 3.919983%, 18.818665%)" fill-opacity="1"><g transform="translate(192.745214, 175.038125)"><g><path d="M 7.125 -1.796875 L 3.21875 -1.796875 L 2.484375 0 L -0.1875 0 L 3.90625 -9.25 L 6.484375 -9.25 L 10.578125 0 L 7.859375 0 Z M 6.359375 -3.734375 L 5.171875 -6.6875 L 3.984375 -3.734375 Z M 6.359375 -3.734375 "/></g></g></g><g fill="rgb(1.959229%, 3.919983%, 18.818665%)" fill-opacity="1"><g transform="translate(203.137949, 175.038125)"><g><path d="M 9.734375 -9.25 L 9.734375 0 L 7.578125 0 L 3.484375 -4.9375 L 3.484375 0 L 0.921875 0 L 0.921875 -9.25 L 3.078125 -9.25 L 7.171875 -4.328125 L 7.171875 -9.25 Z M 9.734375 -9.25 "/></g></g></g><g fill="rgb(1.959229%, 3.919983%, 18.818665%)" fill-opacity="1"><g transform="translate(213.795132, 175.038125)"><g><path d="M 0.921875 -9.25 L 5.296875 -9.25 C 6.316406 -9.25 7.21875 -9.054688 8 -8.671875 C 8.78125 -8.296875 9.382812 -7.757812 9.8125 -7.0625 C 10.25 -6.375 10.46875 -5.5625 10.46875 -4.625 C 10.46875 -3.6875 10.25 -2.867188 9.8125 -2.171875 C 9.382812 -1.484375 8.78125 -0.945312 8 -0.5625 C 7.21875 -0.1875 6.316406 0 5.296875 0 L 0.921875 0 Z M 5.1875 -2.09375 C 5.988281 -2.09375 6.628906 -2.316406 7.109375 -2.765625 C 7.585938 -3.210938 7.828125 -3.832031 7.828125 -4.625 C 7.828125 -5.414062 7.585938 -6.035156 7.109375 -6.484375 C 6.628906 -6.941406 5.988281 -7.171875 5.1875 -7.171875 L 3.546875 -7.171875 L 3.546875 -2.09375 Z M 5.1875 -2.09375 "/></g></g></g><g fill="rgb(1.959229%, 3.919983%, 18.818665%)" fill-opacity="1"><g transform="translate(224.716756, 175.038125)"><g><path d="M 5.59375 0.1875 C 4.613281 0.1875 3.734375 -0.0195312 2.953125 -0.4375 C 2.171875 -0.851562 1.554688 -1.425781 1.109375 -2.15625 C 0.671875 -2.882812 0.453125 -3.707031 0.453125 -4.625 C 0.453125 -5.539062 0.671875 -6.363281 1.109375 -7.09375 C 1.554688 -7.832031 2.171875 -8.40625 2.953125 -8.8125 C 3.734375 -9.226562 4.613281 -9.4375 5.59375 -9.4375 C 6.570312 -9.4375 7.453125 -9.226562 8.234375 -8.8125 C 9.015625 -8.40625 9.625 -7.832031 10.0625 -7.09375 C 10.507812 -6.363281 10.734375 -5.539062 10.734375 -4.625 C 10.734375 -3.707031 10.507812 -2.882812 10.0625 -2.15625 C 9.625 -1.425781 9.015625 -0.851562 8.234375 -0.4375 C 7.453125 -0.0195312 6.570312 0.1875 5.59375 0.1875 Z M 5.59375 -1.984375 C 6.0625 -1.984375 6.484375 -2.09375 6.859375 -2.3125 C 7.234375 -2.53125 7.53125 -2.835938 7.75 -3.234375 C 7.976562 -3.640625 8.09375 -4.101562 8.09375 -4.625 C 8.09375 -5.144531 7.976562 -5.601562 7.75 -6 C 7.53125 -6.40625 7.234375 -6.71875 6.859375 -6.9375 C 6.484375 -7.15625 6.0625 -7.265625 5.59375 -7.265625 C 5.125 -7.265625 4.695312 -7.15625 4.3125 -6.9375 C 3.9375 -6.71875 3.640625 -6.40625 3.421875 -6 C 3.203125 -5.601562 3.09375 -5.144531 3.09375 -4.625 C 3.09375 -4.101562 3.203125 -3.640625 3.421875 -3.234375 C 3.640625 -2.835938 3.9375 -2.53125 4.3125 -2.3125 C 4.695312 -2.09375 5.125 -1.984375 5.59375 -1.984375 Z M 5.59375 -1.984375 "/></g></g></g><g fill="rgb(1.959229%, 3.919983%, 18.818665%)" fill-opacity="1"><g transform="translate(235.902829, 175.038125)"><g><path d="M 4.96875 -2.453125 L 3.546875 -2.453125 L 3.546875 0 L 0.921875 0 L 0.921875 -9.25 L 5.15625 -9.25 C 5.988281 -9.25 6.710938 -9.109375 7.328125 -8.828125 C 7.953125 -8.554688 8.429688 -8.160156 8.765625 -7.640625 C 9.097656 -7.128906 9.265625 -6.523438 9.265625 -5.828125 C 9.265625 -5.160156 9.109375 -4.578125 8.796875 -4.078125 C 8.484375 -3.578125 8.035156 -3.1875 7.453125 -2.90625 L 9.453125 0 L 6.65625 0 Z M 6.625 -5.828125 C 6.625 -6.265625 6.484375 -6.597656 6.203125 -6.828125 C 5.929688 -7.066406 5.53125 -7.1875 5 -7.1875 L 3.546875 -7.1875 L 3.546875 -4.484375 L 5 -4.484375 C 5.53125 -4.484375 5.929688 -4.597656 6.203125 -4.828125 C 6.484375 -5.066406 6.625 -5.398438 6.625 -5.828125 Z M 6.625 -5.828125 "/></g></g></g><g fill="rgb(1.959229%, 3.919983%, 18.818665%)" fill-opacity="1"><g transform="translate(245.687338, 175.038125)"><g><path d="M 7.125 -1.796875 L 3.21875 -1.796875 L 2.484375 0 L -0.1875 0 L 3.90625 -9.25 L 6.484375 -9.25 L 10.578125 0 L 7.859375 0 Z M 6.359375 -3.734375 L 5.171875 -6.6875 L 3.984375 -3.734375 Z M 6.359375 -3.734375 "/></g></g></g><path fill="rgb(0%, 63.139343%, 60.389709%)" d="M 149.636719 170.410156 C 146.921875 173.144531 146.921875 177.582031 149.636719 180.320312 C 152.351562 183.054688 156.753906 183.054688 159.46875 180.320312 L 169.304688 170.410156 C 172.019531 167.671875 172.019531 163.234375 169.304688 160.5 C 166.589844 157.761719 162.183594 157.761719 159.46875 160.5 Z M 149.636719 170.410156 " fill-opacity="1" fill-rule="nonzero"/><path fill="rgb(18.818665%, 26.669312%, 59.999084%)" d="M 149.636719 170.410156 C 152.351562 167.671875 152.351562 163.234375 149.636719 160.5 C 146.921875 157.761719 142.519531 157.761719 139.804688 160.5 L 129.972656 170.410156 C 127.257812 173.144531 127.257812 177.582031 129.972656 180.320312 C 132.6875 183.054688 137.089844 183.054688 139.804688 180.320312 Z M 149.636719 170.410156 " fill-opacity="1" fill-rule="nonzero"/><path fill="rgb(100%, 70.199585%, 0%)" d="M 149.636719 180.320312 C 152.351562 183.054688 156.753906 183.054688 159.46875 180.320312 C 162.183594 177.582031 162.183594 173.144531 159.46875 170.410156 L 149.636719 160.5 C 146.921875 157.761719 142.519531 157.761719 139.804688 160.5 C 137.089844 163.234375 137.089844 167.671875 139.804688 170.410156 Z M 149.636719 180.320312 " fill-opacity="1" fill-rule="nonzero"/><path fill="rgb(93.728638%, 93.728638%, 93.728638%)" d="M 158.582031 180.082031 C 158.460938 180.1875 158.335938 180.289062 158.207031 180.386719 C 158.335938 180.292969 158.460938 180.191406 158.582031 180.082031 Z M 158.582031 180.082031 " fill-opacity="1" fill-rule="nonzero"/><path fill="rgb(93.728638%, 93.728638%, 93.728638%)" d="M 157.953125 180.5625 C 157.785156 180.675781 157.609375 180.78125 157.429688 180.875 C 157.609375 180.78125 157.785156 180.679688 157.953125 180.5625 Z M 157.953125 180.5625 " fill-opacity="1" fill-rule="nonzero"/><path fill="rgb(93.728638%, 93.728638%, 93.728638%)" d="M 157.429688 180.875 C 157.289062 180.949219 157.144531 181.019531 157 181.078125 C 157.144531 181.019531 157.289062 180.949219 157.429688 180.875 Z M 157.429688 180.875 " fill-opacity="1" fill-rule="nonzero"/><path fill="rgb(93.728638%, 93.728638%, 93.728638%)" d="M 156.773438 181.171875 C 156.453125 181.296875 156.121094 181.394531 155.785156 181.464844 C 156.121094 181.394531 156.453125 181.296875 156.773438 181.171875 Z M 156.773438 181.171875 " fill-opacity="1" fill-rule="nonzero"/><path fill="rgb(93.728638%, 93.728638%, 93.728638%)" d="M 150.183594 170.964844 L 150.183594 170.960938 C 150.183594 170.960938 150.1875 170.960938 150.1875 170.960938 L 150.183594 170.960938 C 150.183594 170.960938 150.183594 170.960938 150.183594 170.964844 Z M 150.183594 170.964844 " fill-opacity="1" fill-rule="nonzero"/><path fill="rgb(93.728638%, 93.728638%, 93.728638%)" d="M 157 181.082031 C 156.925781 181.113281 156.851562 181.144531 156.773438 181.171875 C 156.851562 181.144531 156.925781 181.113281 157 181.082031 Z M 157 181.082031 " fill-opacity="1" fill-rule="nonzero"/><path fill="rgb(93.728638%, 93.728638%, 93.728638%)" d="M 158.921875 179.769531 C 158.8125 179.878906 158.699219 179.984375 158.582031 180.082031 C 158.699219 179.984375 158.8125 179.878906 158.921875 179.769531 Z M 158.921875 179.769531 " fill-opacity="1" fill-rule="nonzero"/><path fill="rgb(93.728638%, 93.728638%, 93.728638%)" d="M 155.785156 181.464844 C 155.753906 181.46875 155.71875 181.476562 155.6875 181.484375 C 155.71875 181.476562 155.753906 181.46875 155.785156 181.464844 Z M 155.785156 181.464844 " fill-opacity="1" fill-rule="nonzero"/><g clip-path="url(#id1)"><path fill="rgb(93.728638%, 93.728638%, 93.728638%)" d="M 169.851562 159.945312 C 166.839844 156.910156 161.9375 156.910156 158.921875 159.945312 L 154.554688 164.351562 L 150.183594 159.945312 C 147.171875 156.910156 142.269531 156.910156 139.257812 159.945312 L 129.421875 169.855469 C 126.410156 172.894531 126.410156 177.835938 129.421875 180.871094 C 132.4375 183.910156 137.339844 183.910156 140.351562 180.871094 L 144.722656 176.46875 L 149.089844 180.871094 C 152.101562 183.910156 157.007812 183.910156 160.019531 180.871094 L 169.851562 170.960938 C 172.867188 167.925781 172.867188 162.984375 169.851562 159.945312 Z M 139.257812 179.769531 C 136.847656 182.195312 132.925781 182.195312 130.519531 179.769531 C 128.109375 177.339844 128.109375 173.390625 130.519531 170.960938 L 137.074219 164.359375 C 136.746094 166.699219 137.472656 169.164062 139.257812 170.960938 L 143.625 175.367188 Z M 158.921875 179.769531 C 158.8125 179.878906 158.699219 179.984375 158.582031 180.082031 C 158.460938 180.191406 158.335938 180.292969 158.207031 180.386719 C 158.125 180.449219 158.039062 180.507812 157.953125 180.566406 C 157.785156 180.679688 157.609375 180.78125 157.429688 180.878906 C 157.289062 180.953125 157.144531 181.019531 157 181.082031 C 156.925781 181.113281 156.851562 181.144531 156.773438 181.171875 C 156.453125 181.296875 156.121094 181.394531 155.785156 181.464844 C 155.753906 181.46875 155.71875 181.476562 155.6875 181.484375 C 153.75 181.84375 151.679688 181.273438 150.183594 179.769531 L 146.90625 176.464844 L 145.816406 175.363281 L 144.71875 174.261719 L 140.351562 169.855469 C 137.941406 167.429688 137.941406 163.480469 140.351562 161.050781 C 142.761719 158.625 146.679688 158.625 149.089844 161.050781 L 152.367188 164.355469 L 153.457031 165.453125 L 154.554688 166.558594 L 158.921875 170.960938 C 161.332031 173.390625 161.332031 177.339844 158.921875 179.769531 Z M 168.757812 169.855469 L 162.203125 176.460938 C 162.53125 174.121094 161.804688 171.65625 160.019531 169.855469 L 155.652344 165.453125 L 160.019531 161.050781 C 162.429688 158.625 166.347656 158.625 168.757812 161.050781 C 171.164062 163.480469 171.164062 167.429688 168.757812 169.855469 Z M 168.757812 169.855469 " fill-opacity="1" fill-rule="nonzero"/></g></svg>